<?xml version="1.0" ?><svg height="512" preserveAspectRatio="xMidYMid" viewBox="0 0 512 512" width="512" xmlns="http://www.w3.org/2000/svg" xmlns:xlink="http://www.w3.org/1999/xlink"><defs><style>
      .cls-1 {
        fill: #db9834;
      }

      .cls-2 {
        fill: #000;
        opacity: 0.3;
      }

      .cls-2, .cls-3 {
        fill-rule: evenodd;
      }

      .cls-3 {
        fill: #fff;
      }
    </style></defs><g><circle class="cls-1" cx="256" cy="256" r="256"/><path class="cls-2" d="M152.809,128.630 L7.690,193.474 C2.667,213.485 -0.000,234.431 -0.000,256.000 C-0.000,397.385 114.615,512.000 256.000,512.000 C275.048,512.000 293.611,509.920 311.472,505.974 L360.553,381.796 L310.000,129.000 L212.000,205.000 L152.809,128.630 Z"/><path class="cls-3" d="M151.989,131.246 C151.974,127.760 155.827,128.042 155.827,128.042 L220.531,128.042 L310.440,301.286 C310.440,301.286 309.470,151.800 309.332,130.545 C309.313,127.622 312.995,128.042 312.995,128.042 C312.995,128.042 347.611,128.042 358.061,128.042 C361.267,128.042 361.014,131.666 361.014,131.666 C361.014,131.666 361.014,348.629 361.014,379.293 C361.014,383.124 356.935,382.879 356.935,382.879 L299.201,382.879 L205.921,206.282 C205.921,206.282 206.898,360.798 207.030,381.673 C207.047,384.334 203.849,383.961 203.849,383.961 L155.639,383.379 C155.639,383.379 152.674,383.364 152.663,380.070 C152.574,354.148 151.989,181.703 151.989,131.246 Z"/></g></svg>